{"title":"KNOWING-2009 IN H.264 BY STIG","uid":5045678,"size":944403479,"categoryP":"video","categoryS":"movies","magnet":"?xt=urn:btih:d7d422ff4f93853e0b32110ae4342eec42fc3396&amp;dn=KNOWING-2009+IN+H.264+BY+STIG&amp;tr=udp%3A%2F%2Ftracker.openbittorrent.com%3A80&amp;tr=udp%3A%2F%2Fopen.demonii.com%3A1337&amp;tr=udp%3A%2F%2Ftracker.coppersurfer.tk%3A6969&amp;tr=udp%3A%2F%2Fexodus.desync.com%3A6969","seeders":0,"leechers":0,"uploader":"alanwatson","files":4,"time":1249614726,"description":"Nicolas Cage (National Treasure: Book of Secrets, Leaving Las Vegas) stars in Knowing, a gripping action-thriller of global proportions about a professor who stumbles on terrifying predictions about the future and sets out to prevent them from coming true.\n\nRose Byrne (&quot;Damages&quot;, Troy), Chandler Canterbury ( The Curious Case of Benjamin Button) and Lara Robinson (&quot;Saved&quot;) also star in director Alex Proyas' ( I, Robot ) riveting feature.\n\nComplete name : C:UsersstigDocumentsKNOWING-2009 IN H.264 BY STIGknowing 2009.mp4\nFormat : MPEG-4\nFormat profile : Base Media / Version 2\nCodec ID : mp42\nFile size : 900 MiB\nDuration : 1h 56mn\nOverall bit rate : 1 080 Kbps\nEncoded date : UTC 2009-08-05 16:22:17\nTagged date : UTC 2009-08-05 20:49:52\nWriting application : HandBrake 0.9.3 2008112300\n\nVideo\nID : 1\nFormat : AVC\nFormat/Info : Advanced Video Codec\nFormat profile : &lt;a class=&quot;__cf_email__&quot; href=&quot;/cdn-cgi/l/email-protection&quot; data-cfemail=&quot;460b272f28060a726876&quot;&gt;[email&amp;#160;protected]&lt;/a&gt;&lt;script cf-hash='f9e31' type=&quot;text/javascript&quot;&gt;\n/* &lt;![CDATA[ */!function(){try{var t=&quot;currentScript&quot;in document?document.currentScript:function(){for(var t=document.getElementsByTagName(&quot;script&quot;),e=t.length;e--;)if(t[e].getAttribute(&quot;cf-hash&quot;))return t[e]}();if(t&amp;&amp;t.previousSibling){var e,r,n,i,c=t.previousSibling,a=c.getAttribute(&quot;data-cfemail&quot;);if(a){for(e=&quot;&quot;,r=parseInt(a.substr(0,2),16),n=2;a.length-n;n+=2)i=parseInt(a.substr(n,2),16)^r,e+=String.fromCharCode(i);e=document.createTextNode(e),c.parentNode.replaceChild(e,c)}}}catch(u){}}();/* ]]&gt; */&lt;/script&gt;\nFormat settings, CABAC : Yes\nFormat settings, ReFrames : 3 frames\nCodec ID : avc1\nCodec ID/Info : Advanced Video Coding\nDuration : 1h 56mn\nBit rate mode : Variable\nBit rate : 916 Kbps\nWidth : 718 pixels\nHeight : 434 pixels\nDisplay aspect ratio : 2.35\nFrame rate mode : Variable\nFrame rate : 25.000 fps\nMinimum frame rate : 12.500 fps\nMaximum frame rate : 25.614 fps\nResolution : 24 bits\nColorimetry : 4:2:0\nScan type : Progressive\nBits/(Pixel*Frame) : 0.118\nStream size : 763 MiB (85%)\nWriting library : x264 core 65\n\nAudio\nID : 2\nFormat : AAC\nFormat/Info : Advanced Audio Codec\nFormat version : Version 4\nFormat profile : LC\nFormat settings, SBR : No\nCodec ID : 40\nDuration : 1h 56mn\nBit rate mode : Variable\nBit rate : 160 Kbps\nMaximum bit rate : 210 Kbps\nChannel(s) : 2 channels\nChannel positions : L R\nSampling rate : 48.0 KHz\nResolution : 16 bits\nStream size : 133 MiB (15%)\nLanguage : English\nEncoded date : UTC 2009-08-05 16:22:17\nTagged date : UTC 2009-08-05 20:49:50","torrent":{"xt":"urn:btih:d7d422ff4f93853e0b32110ae4342eec42fc3396","amp;dn":"KNOWING-2009+IN+H.264+BY+STIG","amp;tr":["udp%3A%2F%2Ftracker.openbittorrent.com%3A80","udp%3A%2F%2Fopen.demonii.com%3A1337","udp%3A%2F%2Ftracker.coppersurfer.tk%3A6969","udp%3A%2F%2Fexodus.desync.com%3A6969"],"infoHash":"d7d422ff4f93853e0b32110ae4342eec42fc3396","infoHashBuffer":{"type":"Buffer","data":[215,212,34,255,79,147,133,62,11,50,17,10,228,52,46,236,66,252,51,150]},"announce":[],"urlList":[]}}